<svg xmlns="http://www.w3.org/2000/svg" viewBox="0 0 1080 1350">
  <defs>
    <linearGradient id="bg" x1="0" y1="0" x2="1" y2="1">
      <stop offset="0" stop-color="#1E5E45"/>
      <stop offset="1" stop-color="#0E3527"/>
    </linearGradient>
  </defs>
  <rect width="1080" height="1350" fill="url(#bg)"/>
  <!-- 粽叶 -->
  <g fill="#3E8E5A" fill-opacity="0.55">
    <path d="M1080 0 C900 60 820 200 860 380 C960 300 1040 160 1080 0 Z"/>
    <path d="M1080 120 C980 180 930 300 950 420 C1020 360 1060 240 1080 120 Z" fill-opacity="0.4"/>
  </g>
  <!-- 粽子 -->
  <g transform="translate(880 1120)">
    <path d="M-110 60 L0 -110 L110 60 Z" fill="#4E9B63"/>
    <path d="M-110 60 L0 -110 L-40 60 Z" fill="#3B7F4E"/>
    <path d="M-60 -20 L60 -20" stroke="#F2E5B4" stroke-width="6"/>
    <path d="M-30 20 L30 20" stroke="#F2E5B4" stroke-width="6"/>
    <path d="M-80 40 L0 -80 L80 40" fill="none" stroke="#2B5E3A" stroke-width="3"/>
  </g>
  <g transform="translate(720 1200) scale(0.7)">
    <path d="M-110 60 L0 -110 L110 60 Z" fill="#4E9B63"/>
    <path d="M-110 60 L0 -110 L-40 60 Z" fill="#3B7F4E"/>
    <path d="M-60 -20 L60 -20" stroke="#F2E5B4" stroke-width="6"/>
  </g>
  <!-- 水波 -->
  <g fill="none" stroke="#F2E5B4" stroke-opacity="0.35" stroke-width="4">
    <path d="M0 1260 Q60 1230 120 1260 T240 1260 T360 1260 T480 1260 T600 1260"/>
    <path d="M0 1300 Q60 1270 120 1300 T240 1300 T360 1300 T480 1300 T600 1300 T720 1300"/>
  </g>
  <rect x="48" y="48" width="984" height="1254" rx="24" fill="none" stroke="#F2E5B4" stroke-opacity="0.5" stroke-width="2"/>
</svg>
